<svg width="15" height="26" viewBox="0 0 15 26" fill="none" xmlns="http://www.w3.org/2000/svg">
<path d="M13.8723 0.00520857L10.6261 0C6.97911 0 4.62225 2.41808 4.62225 6.1607V9.00119H1.35834C1.07629 9.00119 0.8479 9.22985 0.8479 9.5119V13.6274C0.8479 13.9095 1.07655 14.1379 1.35834 14.1379H4.62225V24.5227C4.62225 24.8048 4.85065 25.0332 5.13269 25.0332H9.39117C9.67321 25.0332 9.90161 24.8045 9.90161 24.5227V14.1379H13.7179C13.9999 14.1379 14.2283 13.9095 14.2283 13.6274L14.2299 9.5119C14.2299 9.37647 14.176 9.24678 14.0804 9.15094C13.9848 9.0551 13.8546 9.00119 13.7192 9.00119H9.90161V6.59327C9.90161 5.43593 10.1774 4.8484 11.685 4.8484L13.8718 4.84762C14.1536 4.84762 14.382 4.61896 14.382 4.33718V0.515649C14.382 0.234125 14.1538 0.00572943 13.8723 0.00520857Z" fill="white"/>
</svg>
