<svg width="26" height="26" viewBox="0 0 26 26" fill="none" xmlns="http://www.w3.org/2000/svg">
<path d="M17.5757 0H7.45752C3.34543 0 0 3.34543 0 7.45752V17.5757C0 21.6878 3.34543 25.0332 7.45752 25.0332H17.5757C21.6878 25.0332 25.0332 21.6878 25.0332 17.5757V7.45752C25.0331 3.34543 21.6877 0 17.5757 0ZM22.5148 17.5757C22.5148 20.3035 20.3035 22.5148 17.5757 22.5148H7.45752C4.72971 22.5148 2.51834 20.3035 2.51834 17.5757V7.45752C2.51834 4.72966 4.72971 2.51834 7.45752 2.51834H17.5757C20.3035 2.51834 22.5148 4.72966 22.5148 7.45752V17.5757Z" fill="white"/>
<path d="M12.5165 6.04224C8.94647 6.04224 6.04202 8.94668 6.04202 12.5167C6.04202 16.0866 8.94647 18.9911 12.5165 18.9911C16.0865 18.9911 18.991 16.0867 18.991 12.5167C18.991 8.94663 16.0865 6.04224 12.5165 6.04224ZM12.5165 16.4728C10.3316 16.4728 8.56036 14.7016 8.56036 12.5167C8.56036 10.3318 10.3316 8.56057 12.5165 8.56057C14.7014 8.56057 16.4726 10.3318 16.4726 12.5167C16.4726 14.7016 14.7014 16.4728 12.5165 16.4728Z" fill="white"/>
<path d="M19.0036 7.64239C19.8604 7.64239 20.555 6.94779 20.555 6.09097C20.555 5.23414 19.8604 4.53955 19.0036 4.53955C18.1467 4.53955 17.4521 5.23414 17.4521 6.09097C17.4521 6.94779 18.1467 7.64239 19.0036 7.64239Z" fill="white"/>
</svg>
