<svg width="32" height="26" viewBox="0 0 32 26" fill="none" xmlns="http://www.w3.org/2000/svg">
<path d="M31.635 2.96354C30.4893 3.46613 29.2684 3.79927 27.9956 3.96102C29.305 3.17921 30.3044 1.95066 30.7743 0.469853C29.5534 1.19774 28.2055 1.71188 26.769 1.9988C25.6097 0.764475 23.9575 0 22.1551 0C18.6582 0 15.8429 2.83838 15.8429 6.31799C15.8429 6.81865 15.8853 7.30006 15.9893 7.75836C10.7381 7.50225 6.09155 4.98545 2.9701 1.15153C2.42515 2.09701 2.10549 3.17921 2.10549 4.34422C2.10549 6.53173 3.23199 8.47084 4.91114 9.59348C3.89633 9.57423 2.90078 9.27961 2.05735 8.81553C2.05735 8.83479 2.05735 8.85982 2.05735 8.88485C2.05735 11.9543 4.24679 14.5038 7.11791 15.0912C6.60376 15.2317 6.04341 15.2991 5.46187 15.2991C5.05748 15.2991 4.64925 15.276 4.26605 15.1913C5.08444 17.6927 7.40675 19.5317 10.1681 19.5914C8.0191 21.2724 5.29049 22.2853 2.33657 22.2853C1.81858 22.2853 1.32176 22.2622 0.824951 22.1987C3.62289 24.003 6.93882 25.0332 10.5147 25.0332C22.1378 25.0332 28.4924 15.405 28.4924 7.05936C28.4924 6.78014 28.4828 6.51055 28.4693 6.24289C29.7229 5.35325 30.7762 4.24216 31.635 2.96354Z" fill="white"/>
</svg>
