<svg xmlns="http://www.w3.org/2000/svg" viewBox="0 0 452.95 444.86"><title>M 21G</title><g id="Calque_2" data-name="Calque 2"><g id="Layer_1" data-name="Layer 1"><path d="M394.93,172.89C381,93.65,324.65,3.6,231.6,3.6c-76.84,0-130.55,64.09-152.92,128.89-22.8,66-19.22,144.73,12,207.8C122.31,404,186,455.3,262.65,436.57c38.09-9.3,63-28.91,86.48-59,13.75-17.64,24.75-35.88,32.06-57.24a21.31,21.31,0,0,0,1.13-8.05A20.56,20.56,0,0,0,379.07,302c-4.55-7.26-9.66-10.09-18.23-10.09H245.17V288h24.48V125.69q-9.15,5-18.19,10.19t-17.91,10.2l-2.2-3.59q8.81-5.13,17.63-10.19a229.27,229.27,0,0,0,43.26-31.68h11V288H453c-33.26,103.69-137,165.42-243.18,155.88S12.83,353.93,1.24,245.41C-10.42,136.22,61.37,39.33,164.76,9.44,267.24-20.18,380.47,21.22,434.44,115.07Z"/><path d="M228.22,291.86H125.46l60.08-89.05c46.14-73.49-40-99.24-55.52-50.7L126,151c4.56-51,51-50.42,51-50.42,26.82,0,45.87,20.38,45.87,44.79,0,17.7-11.27,33.8-32.45,61.16-13.15,17.16-39.7,56.32-39.7,56.32h77.54Z"/></g></g></svg>